<svg width="30" height="24" viewBox="0 0 30 24" fill="none" xmlns="http://www.w3.org/2000/svg">
    <path d="M4.56248 0.00120883C4.31579 0.0272489 4.08745 0.14373 3.92189 0.32857C3.75634 0.51341 3.66542 0.753116 3.66682 1.00121V1.66778H1.00009C0.965443 1.66615 0.930564 1.66615 0.895921 1.66778C0.649225 1.69382 0.420659 1.8103 0.255087 1.99514C0.0895393 2.17998 -0.00137709 2.41968 1.57703e-05 2.66777V21C1.57703e-05 21.2653 0.105343 21.5196 0.292986 21.707C0.480391 21.8947 0.734766 22 1.00007 22H12.2084C12.6286 23.1518 13.7107 24 15 24C16.2892 24 17.3714 23.1518 17.7915 22H28.9998C29.2651 22 29.5195 21.8947 29.7069 21.707C29.8946 21.5197 29.9999 21.2653 29.9999 21V14.0004C30.0036 13.7326 29.8999 13.4747 29.7121 13.2841C29.5242 13.0935 29.2675 12.9863 28.9998 12.9863C28.7322 12.9863 28.4758 13.0935 28.2876 13.2841C28.0998 13.4748 27.9961 13.7326 27.9998 14.0004V20.0001H16.9998C16.7345 20.0003 16.4801 20.1056 16.2927 20.293C16.1051 20.4806 15.9997 20.735 15.9997 21.0001C15.9997 21.5641 15.5638 22.0001 14.9997 22.0001C14.4356 22.0001 13.9996 21.5641 13.9996 21.0001C13.9996 20.735 13.8943 20.4806 13.7066 20.293C13.5192 20.1056 13.2649 20.0003 12.9996 20.0001H1.99955V3.66771H3.66622V16.9378C3.66622 17.2012 3.77015 17.4539 3.95547 17.641C4.14055 17.8284 4.39236 17.9349 4.65583 17.9377L12.6558 18.0003H12.6663C13.4996 18.0003 13.7128 18.3113 13.9163 18.5731C13.9672 18.6385 14.0077 18.6938 14.0725 18.7815C14.1049 18.8252 14.1309 18.867 14.2393 18.9689C14.2932 19.02 14.3699 19.1007 14.5413 19.1772C14.6464 19.2241 14.8154 19.2681 14.9996 19.2606C15.1837 19.2681 15.3528 19.2241 15.4579 19.1772C15.6292 19.1007 15.706 19.02 15.7599 18.9689C15.8683 18.867 15.8943 18.8252 15.9266 18.7815C15.9915 18.6938 16.0319 18.6385 16.0829 18.5731C16.2863 18.3113 16.4995 18.0003 17.3329 18.0003H17.3433L25.3433 17.9377C25.6068 17.9349 25.8586 17.8284 26.0437 17.641C26.229 17.4539 26.3329 17.2012 26.3329 16.9378V3.66771H27.9996V10.6673C27.9959 10.9349 28.0996 11.1927 28.2875 11.3834C28.4756 11.574 28.732 11.6814 28.9997 11.6814C29.2673 11.6814 29.524 11.574 29.7119 11.3834C29.8997 11.1927 30.0034 10.9349 29.9997 10.6673V2.66777C29.9997 2.40272 29.8944 2.14837 29.7068 1.96073C29.5193 1.77334 29.265 1.66801 28.9997 1.66778H26.3329V1.00121C26.3329 0.736164 26.2276 0.481805 26.0402 0.294173C25.8526 0.10678 25.5982 0.00145277 25.3331 0.00122064H17.3331C16.4779 0.00122064 15.613 0.335094 14.9998 1.00122C14.3867 0.335129 13.5217 0.00122064 12.6666 0.00122064H4.66656C4.63191 -0.00040688 4.59727 -0.00040688 4.56239 0.00122064L4.56248 0.00120883ZM5.66671 2.00121H12.6667C13.0708 2.00121 13.335 2.11071 13.5626 2.37623C13.79 2.64175 14 3.13881 14 4.00119V16.2713C13.6161 16.1181 13.1915 16.0021 12.6772 16.0004H12.6667L5.6667 15.9483L5.66671 2.00121ZM17.3334 2.00121H24.3334V15.948L17.3334 16.0001H17.3229C16.8086 16.0001 16.3841 16.1177 16.0001 16.2709V4.00084C16.0001 3.13851 16.2101 2.6414 16.4375 2.37588C16.6651 2.11036 16.9293 2.00085 17.3334 2.00085L17.3334 2.00121Z" fill="#CBA69B"/>
</svg>
