<svg width="34" height="20" viewBox="0 0 34 20" fill="none" xmlns="http://www.w3.org/2000/svg">
    <path opacity="0.5" d="M23.8029 5.12723V6.82009L25.2855 6.00305L32.1221 2.23563C32.5892 1.97893 32.7972 2.06843 32.8222 2.08228C32.8321 2.08778 33 2.18375 33 2.66975V17.3371C33 17.8166 32.8335 17.9118 32.8226 17.9178C32.7962 17.9324 32.5873 18.0208 32.1232 17.765L32.1231 17.7649L25.2855 13.9969L23.8029 13.1799V14.8728V16.0887C23.8029 16.8468 23.4891 17.5829 22.9158 18.1324L22.9157 18.1324C22.341 18.6834 21.5528 19 20.7229 19H4.07998C3.24998 19 2.46183 18.6834 1.88712 18.1324L1.88701 18.1323C1.31371 17.5829 1 16.8468 1 16.0887V3.9113C1 3.15319 1.31373 2.41711 1.88703 1.86764L1.88712 1.86756C2.46182 1.31661 3.25004 1 4.07998 1H20.7229C21.5529 1 22.341 1.31661 22.9157 1.86756L22.9159 1.86766C23.4892 2.41709 23.8029 3.15321 23.8029 3.9113V5.12723Z" stroke="white" stroke-width="2"/>
</svg>
