<svg width="25" height="35" viewBox="0 0 25 35" fill="none" xmlns="http://www.w3.org/2000/svg">
    <path fill-rule="evenodd" clip-rule="evenodd" d="M1.85059 1.34617C1.85059 0.602767 2.47249 0 3.2395 0H19.1818C19.5077 0 19.8229 0.110878 20.0729 0.313403L24.5013 3.90328C24.8169 4.15899 24.9992 4.5373 24.9992 4.93606C24.9992 5.3345 24.8169 5.71284 24.5013 5.96853L20.0729 9.55841C19.823 9.76094 19.5077 9.87181 19.1818 9.87181H3.2395C2.47249 9.87181 1.85059 9.26935 1.85059 8.52565V1.34617ZM4.62841 2.69233V7.17945H18.6778L21.4457 4.93605L18.6778 2.69233H4.62841Z" fill="#CBA69B"/>
    <path fill-rule="evenodd" clip-rule="evenodd" d="M23.1486 14.8081C23.1486 14.0647 22.5267 13.4619 21.7597 13.4619H5.81734C5.49151 13.4619 5.17622 13.5728 4.9263 13.7753L0.497897 17.3652C0.182289 17.6209 0 17.9992 0 18.398C0 18.7964 0.182297 19.1748 0.497897 19.4304L4.9263 23.0203C5.17618 23.2229 5.49147 23.3337 5.81734 23.3337H21.7597C22.5267 23.3337 23.1486 22.731 23.1486 21.9876V14.8081ZM20.3708 16.1542V20.6414H6.32132L3.55342 18.398L6.32132 16.1542H20.3708Z" fill="#CBA69B"/>
    <path fill-rule="evenodd" clip-rule="evenodd" d="M12.4993 8.07666C13.2663 8.07666 13.8882 8.67943 13.8882 9.42283V13.9099C13.8882 14.6533 13.2663 15.2561 12.4993 15.2561C11.7323 15.2561 11.1104 14.6533 11.1104 13.9099V9.42283C11.1104 8.67943 11.7323 8.07666 12.4993 8.07666ZM12.4993 22.436C13.2663 22.436 13.8882 23.0388 13.8882 23.7822V33.6538C13.8882 34.3972 13.2663 35 12.4993 35C11.7323 35 11.1104 34.3972 11.1104 33.6538V23.7822C11.1104 23.0388 11.7323 22.436 12.4993 22.436Z" fill="#CBA69B"/>
</svg>
