<svg width="22" height="30" viewBox="0 0 22 30" fill="none" xmlns="http://www.w3.org/2000/svg">
    <path fill-rule="evenodd" clip-rule="evenodd" d="M12.9965 1.13431C12.0092 -0.378103 9.79374 -0.378103 8.80661 1.13431L8.2632 1.96717C8.10553 2.20853 7.80094 2.3076 7.53152 2.20494L6.60213 1.8506C4.91455 1.20725 3.12218 2.50953 3.21262 4.31329L3.26237 5.30653C3.2767 5.59446 3.08846 5.85376 2.81022 5.92898L1.85028 6.18847C0.106803 6.66001 -0.57782 8.76707 0.555395 10.1733L1.17953 10.9475C1.36039 11.172 1.36039 11.4925 1.17953 11.7169L0.555395 12.4912C-0.57782 13.8974 0.10683 16.0044 1.85028 16.476L2.81022 16.7355C3.08846 16.8107 3.2767 17.07 3.26237 17.358L3.21262 18.3512C3.12219 20.1549 4.91455 21.4572 6.60213 20.8139L7.53152 20.4595C7.80092 20.3569 8.10552 20.456 8.2632 20.6973L8.80661 21.5302C9.79374 23.0426 12.0092 23.0426 12.9965 21.5302L13.5402 20.6973C13.6976 20.456 14.0022 20.3569 14.2716 20.4595L15.201 20.8139C16.8886 21.4572 18.681 20.1549 18.5905 18.3512L18.5408 17.358C18.5262 17.07 18.7147 16.8107 18.9929 16.7355L19.9529 16.476C21.6963 16.0045 22.381 13.8974 21.2475 12.4912L20.6236 11.7169C20.4428 11.4924 20.4428 11.172 20.6236 10.9475L21.2475 10.1733C22.381 8.76707 21.6963 6.66005 19.9529 6.18847L18.9929 5.92898C18.7147 5.85373 18.5262 5.59446 18.5408 5.30653L18.5905 4.31329C18.6809 2.50953 16.8886 1.20725 15.201 1.8506L14.2716 2.20494C14.0022 2.30759 13.6976 2.20852 13.5402 1.96717L12.9965 1.13431ZM10.3884 2.16677C10.6302 1.7962 11.173 1.7962 11.4148 2.16656L11.9584 2.99942C12.6017 3.98489 13.8448 4.38896 14.9445 3.96967L15.8737 3.61533C16.2872 3.45787 16.7263 3.7768 16.7042 4.21885L16.6545 5.21208C16.5956 6.38744 17.364 7.445 18.4999 7.7521L19.4599 8.0118C19.8871 8.12731 20.0549 8.64354 19.7771 8.98798L19.1532 9.76246C18.4145 10.6786 18.4145 11.9859 19.1532 12.9022L19.7771 13.6765C20.0549 14.0209 19.8871 14.5371 19.4599 14.6529L18.4999 14.9124C17.364 15.2195 16.5956 16.277 16.6545 17.4524L16.7042 18.4456C16.7263 18.8876 16.2873 19.2066 15.8737 19.0491L14.9445 18.6948C13.8448 18.2755 12.6017 18.6796 11.9584 19.665L11.4148 20.4979C11.173 20.8683 10.6302 20.8683 10.3884 20.4979L9.84479 19.665C9.20145 18.6796 7.95842 18.2755 6.85872 18.6948L5.92953 19.0491C5.51596 19.2066 5.07687 18.8877 5.099 18.4456L5.14874 17.4524C5.20755 16.277 4.43924 15.2195 3.30328 14.9124L2.34333 14.6529C1.91606 14.5371 1.74829 14.0209 2.02609 13.6765L2.65001 12.9022C3.38865 11.9859 3.38865 10.6786 2.65001 9.76246L2.02609 8.98798C1.74827 8.64355 1.91606 8.12733 2.34333 8.0118L3.30328 7.7521C4.43924 7.44498 5.20756 6.38744 5.14874 5.21208L5.099 4.21885C5.07686 3.77682 5.51594 3.45787 5.92953 3.61533L6.85872 3.96967C7.95842 4.38893 9.20145 3.98485 9.84479 2.99942L10.3884 2.16677Z" fill="#CBA69B"/>
    <path d="M4.72268 24.5527C4.72268 24.0312 4.29983 23.6084 3.77833 23.6084C3.25683 23.6084 2.83398 24.0312 2.83398 24.5527V27.1628C2.83398 29.269 5.05023 30.6387 6.93407 29.6967L10.9108 27.7083C11.1766 27.5755 11.4895 27.5755 11.7552 27.7083L15.7322 29.6967C17.6159 30.6387 19.8322 29.269 19.8322 27.1628V24.5527C19.8322 24.0312 19.4093 23.6084 18.8878 23.6084C18.3663 23.6084 17.9435 24.0312 17.9435 24.5527V27.1628C17.9435 27.8649 17.2047 28.3215 16.5769 28.0076L12.5999 26.0192C11.8025 25.6204 10.8636 25.6204 10.0662 26.0192L6.08944 28.0076C5.46148 28.3215 4.72268 27.8649 4.72268 27.1628V24.5527Z" fill="#CBA69B"/>
</svg>
