<svg width="47" height="47" viewBox="0 0 47 47" fill="none" xmlns="http://www.w3.org/2000/svg">
    <path d="M41.3245 21.9985C41.2405 21.9906 39.2676 21.7942 38.8749 21.7942C38.4401 21.7942 38.4072 22.0394 38.4072 22.1143C38.4072 22.1892 38.4401 22.4333 38.8749 22.4333C39.1814 22.4333 40.7603 22.3197 41.3279 22.2278L41.3755 22.221V22.0042L41.3245 21.9985Z" fill="#252930"/>
    <path d="M38.9343 20.4304H38.4121V20.9526H38.9343V20.4304Z" fill="#252930"/>
    <path d="M38.9343 23.3188H38.4121V23.841H38.9343V23.3188Z" fill="#252930"/>
    <path d="M35.5885 21.7964C35.2821 21.7964 33.702 21.9099 33.1356 22.0018L33.0879 22.0087V22.2255L33.139 22.2311C33.223 22.2391 35.1958 22.4355 35.5885 22.4355C36.0233 22.4355 36.0562 22.1903 36.0562 22.1154C36.0562 22.0404 36.0233 21.7964 35.5885 21.7964Z" fill="#252930"/>
    <path d="M36.0514 23.322H35.5293V23.8442H36.0514V23.322Z" fill="#252930"/>
    <path d="M36.0514 20.4346H35.5293V20.9567H36.0514V20.4346Z" fill="#252930"/>
    <path d="M37.2319 20.9627C37.3068 20.9627 37.5509 20.9286 37.5509 20.495C37.5509 20.1885 37.4373 18.6085 37.3465 18.0421L37.3386 17.9944H37.1229L37.1184 18.0511C37.1104 18.134 36.9141 20.108 36.9141 20.5007C36.9163 20.9286 37.1604 20.9627 37.2319 20.9627Z" fill="#252930"/>
    <path d="M37.2399 23.3179C37.1649 23.3179 36.9209 23.3519 36.9209 23.7855C36.9209 24.092 37.0344 25.6721 37.1264 26.2385L37.1332 26.2862H37.35V26.2351C37.359 26.1522 37.5543 24.1783 37.5543 23.7855C37.5588 23.3519 37.3148 23.3179 37.2399 23.3179Z" fill="#252930"/>
    <path d="M37.2429 21.8048L36.8535 21.7344L36.9239 22.1237L36.8535 22.5142L37.2429 22.4427L37.6333 22.5142L37.5618 22.1237L37.6333 21.7344L37.2429 21.8048Z" fill="#252930"/>
    <path d="M46.7195 19.9217C45.8532 14.2925 42.9719 9.16962 38.6114 5.50581C34.1039 1.72136 29.2695 -0.081194 23.8368 0.00280394V34.4159C23.8368 34.5011 23.803 34.5828 23.7427 34.643C23.6825 34.7033 23.6008 34.7371 23.5156 34.7371H15.8718C15.7866 34.7371 15.7049 34.7033 15.6446 34.643C15.5844 34.5828 15.5505 34.5011 15.5505 34.4159V16.883C15.5504 16.7987 15.5669 16.7152 15.599 16.6373C15.6311 16.5594 15.6783 16.4886 15.7378 16.4289L18.789 13.3562C19.3837 12.7606 19.855 12.0534 20.1758 11.2752C20.4966 10.497 20.6607 9.66317 20.6585 8.82146V8.4026C20.6564 6.80769 20.0219 5.2787 18.8941 4.15092C17.7664 3.02314 16.2374 2.38863 14.6425 2.38653C13.3439 2.38653 12.1691 2.84057 11.1577 3.50348C7.54282 5.73411 4.60025 8.90293 2.64301 12.6728C0.685772 16.4427 -0.212921 20.6727 0.0425379 24.9127C0.297997 29.1527 1.69805 33.2441 4.09376 36.7518C6.48947 40.2594 9.79121 43.052 13.6477 44.8325C17.5043 46.613 21.7713 47.3147 25.9949 46.8631C30.2185 46.4115 34.2407 44.8234 37.6336 42.2678C41.0265 39.7121 43.6631 36.2845 45.263 32.3497C46.863 28.4148 47.3663 24.1198 46.7195 19.9217ZM29.7893 44.9531C24.9073 46.3829 19.6838 46.1053 14.9808 44.1663C10.2778 42.2273 6.37644 38.7427 3.92074 34.2876C1.46504 29.8325 0.601749 24.6733 1.47335 19.6615C2.34495 14.6497 4.89934 10.0848 8.71492 6.72037C8.58252 7.17478 8.5145 7.64552 8.51287 8.11882C8.51287 9.935 9.96467 11.4106 11.7479 11.4106C13.4109 11.4106 14.5289 10.2982 14.5289 8.94859C14.5289 7.78851 13.496 6.97577 12.2587 6.72945C12.0231 6.69422 11.8027 6.59178 11.6238 6.43442C11.445 6.27706 11.3153 6.07145 11.2504 5.84225C11.1855 5.61305 11.188 5.36999 11.2577 5.1422C11.3275 4.91442 11.4614 4.71157 11.6435 4.55799C11.757 4.46718 11.8058 4.43653 11.8058 4.43653C12.6816 3.80732 13.742 3.4878 14.8195 3.52845C17.4587 3.61812 19.5234 5.84861 19.5234 8.49228V8.82146C19.5252 9.51459 19.3901 10.2013 19.126 10.8421C18.8618 11.4829 18.4738 12.0653 17.9842 12.556L8.92719 21.6766C8.86757 21.7361 8.82032 21.8069 8.78818 21.8849C8.75603 21.9628 8.73962 22.0463 8.73989 22.1306V35.2502C8.73989 35.4209 8.8077 35.5846 8.9284 35.7053C9.0491 35.826 9.2128 35.8938 9.3835 35.8938H26.4737C34.2424 35.8938 36.5046 39.9155 36.6999 41.5523C36.1096 41.9711 35.2242 42.5489 34.5976 42.9144C33.0802 43.7799 31.4664 44.4641 29.7893 44.9531ZM42.3663 35.4931C41.07 37.5344 39.4507 39.3515 37.5716 40.8735V35.3716C37.5716 35.2009 37.5038 35.0372 37.3831 34.9165C37.2624 34.7958 37.0987 34.728 36.928 34.728H30.9687C30.8835 34.728 30.8018 34.6942 30.7416 34.6339C30.6813 34.5737 30.6475 34.492 30.6475 34.4068V2.63966C30.6475 2.58766 30.6601 2.53644 30.6842 2.49038C30.7083 2.44431 30.7432 2.40476 30.786 2.37509C30.8287 2.34543 30.8779 2.32654 30.9295 2.32003C30.9811 2.31353 31.0335 2.31959 31.0822 2.33772C33.4489 3.20608 35.7032 4.54891 37.8815 6.3787C42.0303 9.86482 44.7719 14.7388 45.5968 20.0946C46.4218 25.4504 45.2738 30.9236 42.3663 35.4965V35.4931Z" fill="#252930"/>
</svg>
