<svg width="63" height="64" viewBox="0 0 63 64" fill="none" xmlns="http://www.w3.org/2000/svg">
    <g opacity="0.5">
        <path d="M55.4001 29.4917C55.2875 29.481 52.6427 29.2178 52.1162 29.2178C51.5334 29.2178 51.4893 29.5465 51.4893 29.6469C51.4893 29.7473 51.5334 30.0745 52.1162 30.0745C52.5271 30.0745 54.6438 29.9223 55.4047 29.7991L55.4686 29.7899V29.4993L55.4001 29.4917Z" fill="#DE7856"/>
        <path d="M52.1961 27.3892H51.4961V28.0892H52.1961V27.3892Z" fill="#DE7856"/>
        <path d="M52.1961 31.2615H51.4961V31.9615H52.1961V31.2615Z" fill="#DE7856"/>
        <path d="M47.7108 29.2205C47.2999 29.2205 45.1817 29.3726 44.4223 29.4959L44.3584 29.505V29.7957L44.4269 29.8033C44.5395 29.8139 47.1843 30.0772 47.7108 30.0772C48.2936 30.0772 48.3377 29.7485 48.3377 29.6481C48.3377 29.5476 48.2936 29.2205 47.7108 29.2205Z" fill="#DE7856"/>
        <path d="M48.3309 31.2661H47.6309V31.9661H48.3309V31.2661Z" fill="#DE7856"/>
        <path d="M48.3309 27.3945H47.6309V28.0945H48.3309V27.3945Z" fill="#DE7856"/>
        <path d="M49.9144 28.1026C50.0148 28.1026 50.342 28.057 50.342 27.4757C50.342 27.0648 50.1898 24.9465 50.0681 24.1872L50.0574 24.1233H49.7683L49.7622 24.1994C49.7515 24.3105 49.4883 26.9568 49.4883 27.4833C49.4913 28.057 49.8185 28.1026 49.9144 28.1026Z" fill="#DE7856"/>
        <path d="M49.9237 31.26C49.8233 31.26 49.4961 31.3057 49.4961 31.887C49.4961 32.2978 49.6483 34.4161 49.7715 35.1754L49.7807 35.2394H50.0713V35.1709C50.0835 35.0598 50.3452 32.4135 50.3452 31.887C50.3513 31.3057 50.0241 31.26 49.9237 31.26Z" fill="#DE7856"/>
        <path d="M49.9282 29.232L49.4062 29.1377L49.5006 29.6597L49.4062 30.1831L49.9282 30.0873L50.4517 30.1831L50.3558 29.6597L50.4517 29.1377L49.9282 29.232Z" fill="#DE7856"/>
        <path d="M62.6325 26.7072C61.4713 19.1607 57.6085 12.2929 51.7628 7.38113C45.72 2.30767 39.2389 -0.108849 31.9559 0.00375898V46.1382C31.9559 46.2524 31.9105 46.362 31.8297 46.4427C31.749 46.5235 31.6394 46.5689 31.5252 46.5689H21.2778C21.1636 46.5689 21.0541 46.5235 20.9733 46.4427C20.8926 46.362 20.8472 46.2524 20.8472 46.1382V22.6335C20.847 22.5205 20.8691 22.4086 20.9122 22.3042C20.9552 22.1997 21.0185 22.1048 21.0983 22.0248L25.1887 17.9055C25.986 17.1069 26.6178 16.1589 27.0479 15.1156C27.478 14.0724 27.6979 12.9545 27.695 11.8261V11.2646C27.6922 9.12645 26.8416 7.07667 25.3297 5.56476C23.8177 4.05285 21.768 3.20222 19.6298 3.1994C17.8889 3.1994 16.3139 3.8081 14.9581 4.69679C10.112 7.6872 6.16713 11.9354 3.54324 16.9893C0.919352 22.0433 -0.285444 27.714 0.0570266 33.3982C0.399498 39.0824 2.27643 44.5674 5.48813 49.2698C8.69984 53.9721 13.1262 57.7159 18.2963 60.1028C23.4664 62.4898 29.1868 63.4306 34.849 62.8251C40.5113 62.2197 45.9035 60.0907 50.452 56.6645C55.0005 53.2384 58.5352 48.6434 60.68 43.3683C62.8249 38.0932 63.4997 32.3353 62.6325 26.7072ZM39.9359 60.2645C33.391 62.1813 26.3882 61.8092 20.0833 59.2098C13.7784 56.6103 8.54831 51.9388 5.25618 45.9663C1.96405 39.9938 0.806711 33.0773 1.97519 26.3584C3.14366 19.6395 6.5681 13.5198 11.6833 9.00939C11.5058 9.61858 11.4146 10.2497 11.4124 10.8842C11.4124 13.3189 13.3587 15.2972 15.7494 15.2972C17.9787 15.2972 19.4776 13.8059 19.4776 11.9966C19.4776 10.4413 18.0929 9.35178 16.4342 9.02156C16.1183 8.97433 15.8228 8.837 15.583 8.62604C15.3433 8.41508 15.1694 8.13944 15.0824 7.83218C14.9953 7.52491 14.9987 7.19906 15.0922 6.89368C15.1857 6.58831 15.3653 6.31638 15.6094 6.11048C15.7616 5.98875 15.827 5.94766 15.827 5.94766C17.001 5.10413 18.4226 4.67578 19.8672 4.73027C23.4052 4.85049 26.1733 7.8407 26.1733 11.3848V11.8261C26.1756 12.7553 25.9945 13.6759 25.6404 14.535C25.2863 15.3941 24.7662 16.1749 24.1098 16.8326L11.9679 29.0598C11.8879 29.1397 11.8246 29.2346 11.7815 29.339C11.7384 29.4435 11.7164 29.5555 11.7168 29.6685V47.2567C11.7168 47.4855 11.8077 47.705 11.9695 47.8668C12.1313 48.0286 12.3508 48.1195 12.5796 48.1195H35.4909C45.9056 48.1195 48.9384 53.511 49.2002 55.7054C48.4089 56.2669 47.2219 57.0415 46.3819 57.5315C44.3476 58.6917 42.1841 59.609 39.9359 60.2645ZM56.7967 47.5823C55.0588 50.3189 52.8879 52.755 50.3689 54.7954V47.4195C50.3689 47.1907 50.278 46.9712 50.1162 46.8094C49.9543 46.6476 49.7349 46.5567 49.506 46.5567H41.5169C41.4027 46.5567 41.2932 46.5113 41.2124 46.4306C41.1317 46.3498 41.0863 46.2403 41.0863 46.126V3.53875C41.0863 3.46904 41.1032 3.40038 41.1356 3.33862C41.1679 3.27686 41.2147 3.22384 41.2719 3.18407C41.3292 3.14431 41.3952 3.11898 41.4644 3.11026C41.5335 3.10154 41.6038 3.10967 41.6691 3.13397C44.8419 4.2981 47.8641 6.09831 50.7843 8.55135C56.3461 13.2249 60.0217 19.759 61.1275 26.9391C62.2334 34.1191 60.6944 41.4564 56.7967 47.5869V47.5823Z" fill="#DE7856"/>
    </g>
</svg>
