<svg width="143" height="69" viewBox="0 0 143 69" fill="none" xmlns="http://www.w3.org/2000/svg">
    <path d="M6.22745 36.9461L10.2235 46.4064H8.10086L5.16614 39.4511L2.20466 46.4064H0.0820312L4.10482 36.9461L0.229465 27.8394H2.3521L5.16614 34.4705L7.95349 27.8394H10.0761L6.22745 36.9461Z" fill="#252930"/>
    <path d="M14.662 29.9024C15.4482 29.9024 16.0771 30.0301 16.5488 30.2855C17.0205 30.5213 17.3841 30.7669 17.6396 31.0223C18.2882 31.71 18.6125 32.5941 18.6125 33.6747C18.6125 34.382 18.4552 35.0992 18.1408 35.8261C17.846 36.5335 17.4332 37.172 16.9026 37.7418C15.8806 38.8224 14.662 39.4708 13.2469 39.6869V44.4908H11.1833V29.9024H14.662ZM15.399 36.3566C15.7725 35.9637 16.0574 35.5314 16.254 35.0599C16.4505 34.5883 16.5488 34.1266 16.5488 33.6747C16.5488 33.4979 16.5193 33.3014 16.4604 33.0853C16.421 32.8495 16.3129 32.6432 16.1361 32.4664C15.8019 32.1324 15.3106 31.9654 14.662 31.9654H13.2469V37.5944C13.7579 37.4765 14.1903 37.2997 14.5441 37.0639C14.8979 36.8282 15.1828 36.5924 15.399 36.3566Z" fill="#252930"/>
    <path d="M26.3443 29.9024H28.408V44.4908H26.3443V35.8851L22.7476 43.0467V44.4908H20.684V29.9024H22.7476V38.8912L26.3443 31.7001V29.9024Z" fill="#252930"/>
    <path d="M38.4255 30.9633C38.7596 31.2384 39.0446 31.5528 39.2805 31.9064C39.5163 32.2404 39.7325 32.6334 39.9291 33.0853L40.1944 33.7631L39.6637 34.2347C39.6441 34.2543 39.5655 34.3427 39.4279 34.4999C39.2903 34.6375 39.1232 34.8438 38.9267 35.1188C38.7498 35.3742 38.5533 35.6984 38.3371 36.0914C38.1405 36.4647 37.9637 36.8871 37.8064 37.3587L35.8312 36.7398C36.1063 35.9146 36.4208 35.2171 36.7746 34.6473C37.1284 34.0775 37.4428 33.6256 37.718 33.2916C37.207 32.4074 36.4896 31.9654 35.5659 31.9654C34.4456 31.9654 33.6103 32.2994 33.06 32.9674C32.5097 33.6354 32.2345 34.4999 32.2345 35.5609C32.2345 36.2682 32.3721 37.0247 32.6472 37.8302C32.9421 38.6358 33.3843 39.3824 33.9739 40.07C34.5635 40.7381 35.3104 41.298 36.2144 41.7499C37.1185 42.2018 38.1897 42.4278 39.4279 42.4278V44.4908C38.7203 44.4908 38.0324 44.422 37.3642 44.2845C36.696 44.1469 36.0572 43.9406 35.4479 43.6656C34.8976 43.4101 34.3768 43.1056 33.8854 42.752C33.3941 42.3983 32.9421 41.9955 32.5293 41.5436C31.7628 40.6791 31.1732 39.7262 30.7605 38.6849C30.3674 37.6239 30.1708 36.5826 30.1708 35.5609C30.1708 33.9498 30.6131 32.6432 31.4975 31.6412C32.4802 30.482 33.8363 29.9024 35.5659 29.9024C36.6665 29.9024 37.6197 30.256 38.4255 30.9633Z" fill="#252930"/>
    <path d="M41.3702 29.9024H48.652V31.7001H46.0282V44.4908H43.9645V31.7001H41.3702V29.9024Z" fill="#252930"/>
    <path d="M56.0844 29.9024H58.1481V44.4908H56.0844V35.8851L52.4877 43.0467V44.4908H50.4241V29.9024H52.4877V38.8912L56.0844 31.7001V29.9024Z" fill="#252930"/>
    <path d="M68.8142 29.9024V44.4908H66.7505V37.8597H62.5642V44.4908H60.5006V34.7357C60.5006 33.8319 60.6578 33.0558 60.9723 32.4074C61.3064 31.7591 61.7682 31.2384 62.3579 30.8454C63.2816 30.2167 64.5689 29.9024 66.2199 29.9024H68.8142ZM66.7505 31.9654H66.2199C65.4141 31.9654 64.7655 32.044 64.2741 32.2011C63.8024 32.3583 63.4388 32.5744 63.1833 32.8495C62.9278 33.1049 62.7608 33.3997 62.6821 33.7337C62.6035 34.048 62.5642 34.382 62.5642 34.7357V35.7967H66.7505V31.9654Z" fill="#252930"/>
    <path d="M76.8421 29.9024H78.9057V44.4908H76.8421V37.0639H73.2453V44.4908H71.1817V29.9024H73.2453V35.2957H76.8421V29.9024Z" fill="#252930"/>
    <path d="M88.9233 30.9633C89.2574 31.2384 89.5424 31.5528 89.7782 31.9064C90.0141 32.2404 90.2303 32.6334 90.4268 33.0853L90.6921 33.7631L90.1615 34.2347C90.1418 34.2543 90.0632 34.3427 89.9256 34.4999C89.788 34.6375 89.621 34.8438 89.4245 35.1188C89.2476 35.3742 89.051 35.6984 88.8348 36.0914C88.6383 36.4647 88.4614 36.8871 88.3042 37.3587L86.3289 36.7398C86.6041 35.9146 86.9186 35.2171 87.2723 34.6473C87.6261 34.0775 87.9406 33.6256 88.2157 33.2916C87.7047 32.4074 86.9873 31.9654 86.0636 31.9654C84.9433 31.9654 84.108 32.2994 83.5577 32.9674C83.0074 33.6354 82.7323 34.4999 82.7323 35.5609C82.7323 36.2682 82.8698 37.0247 83.145 37.8302C83.4398 38.6358 83.882 39.3824 84.4716 40.07C85.0613 40.7381 85.8081 41.298 86.7122 41.7499C87.6163 42.2018 88.6874 42.4278 89.9256 42.4278V44.4908C89.2181 44.4908 88.5302 44.422 87.8619 44.2845C87.1937 44.1469 86.555 43.9406 85.9457 43.6656C85.3954 43.4101 84.8745 43.1056 84.3832 42.752C83.8918 42.3983 83.4398 41.9955 83.0271 41.5436C82.2606 40.6791 81.6709 39.7262 81.2582 38.6849C80.8651 37.6239 80.6686 36.5826 80.6686 35.5609C80.6686 33.9498 81.1108 32.6432 81.9952 31.6412C82.9779 30.482 84.3341 29.9024 86.0636 29.9024C87.1642 29.9024 88.1175 30.256 88.9233 30.9633Z" fill="#252930"/>
    <path d="M99.3266 37.3881C100.29 38.2919 100.771 39.461 100.771 40.8952V44.4908H98.7075V40.8952C98.7075 40.4433 98.6289 40.0504 98.4717 39.7164C98.3341 39.3824 98.1375 39.1073 97.882 38.8912C97.6462 38.6554 97.371 38.4884 97.0566 38.3902C96.7421 38.2723 96.4276 38.2133 96.1132 38.2133H95.7594L94.5212 40.3058V44.4908H92.4575V29.9024H94.5212V37.1818L98.4127 29.9024H100.653L96.9092 36.2387C97.8526 36.3959 98.6584 36.7791 99.3266 37.3881Z" fill="#252930"/>
    <path d="M109.86 29.9024C110.843 29.9024 111.777 30.089 112.661 30.4623C113.545 30.816 114.332 31.3366 115.019 32.0243C115.707 32.712 116.228 33.4979 116.582 34.382C116.955 35.2662 117.142 36.1994 117.142 37.1818C117.142 38.1839 116.955 39.127 116.582 40.0111C116.228 40.8952 115.707 41.6812 115.019 42.3688C114.332 43.0565 113.545 43.587 112.661 43.9603C111.777 44.3139 110.843 44.4908 109.86 44.4908C108.878 44.4908 107.944 44.3139 107.06 43.9603C106.175 43.587 105.389 43.0565 104.701 42.3688C104.013 41.6812 103.483 40.8952 103.109 40.0111C102.736 39.127 102.549 38.1839 102.549 37.1818C102.549 36.1994 102.736 35.2662 103.109 34.382C103.483 33.4979 104.013 32.712 104.701 32.0243C105.389 31.3366 106.175 30.816 107.06 30.4623C107.944 30.089 108.878 29.9024 109.86 29.9024ZM109.86 42.4278C110.587 42.4278 111.266 42.2902 111.894 42.0152C112.523 41.7401 113.074 41.3668 113.545 40.8952C114.017 40.4237 114.391 39.8736 114.666 39.2448C114.941 38.5965 115.078 37.9088 115.078 37.1818C115.078 36.4745 114.941 35.8065 114.666 35.1778C114.391 34.5294 114.017 33.9694 113.545 33.4979C113.074 33.0263 112.523 32.653 111.894 32.378C111.266 32.1029 110.587 31.9654 109.86 31.9654C109.133 31.9654 108.445 32.1029 107.797 32.378C107.168 32.653 106.617 33.0263 106.146 33.4979C105.674 33.9694 105.301 34.5294 105.025 35.1778C104.75 35.8065 104.613 36.4745 104.613 37.1818C104.613 37.9088 104.75 38.5965 105.025 39.2448C105.301 39.8736 105.674 40.4237 106.146 40.8952C106.617 41.3668 107.168 41.7401 107.797 42.0152C108.445 42.2902 109.133 42.4278 109.86 42.4278Z" fill="#252930"/>
    <path d="M118.916 29.9024H126.256V31.9654H120.979V44.4908H118.916V29.9024Z" fill="#252930"/>
    <path d="M134.792 29.9024C135.775 29.9024 136.709 30.089 137.593 30.4623C138.478 30.816 139.264 31.3366 139.952 32.0243C140.64 32.712 141.16 33.4979 141.514 34.382C141.888 35.2662 142.074 36.1994 142.074 37.1818C142.074 38.1839 141.888 39.127 141.514 40.0111C141.16 40.8952 140.64 41.6812 139.952 42.3688C139.264 43.0565 138.478 43.587 137.593 43.9603C136.709 44.3139 135.775 44.4908 134.792 44.4908C133.81 44.4908 132.876 44.3139 131.992 43.9603C131.107 43.587 130.321 43.0565 129.633 42.3688C128.945 41.6812 128.415 40.8952 128.041 40.0111C127.668 39.127 127.481 38.1839 127.481 37.1818C127.481 36.1994 127.668 35.2662 128.041 34.382C128.415 33.4979 128.945 32.712 129.633 32.0243C130.321 31.3366 131.107 30.816 131.992 30.4623C132.876 30.089 133.81 29.9024 134.792 29.9024ZM134.792 42.4278C135.52 42.4278 136.198 42.2902 136.827 42.0152C137.456 41.7401 138.006 41.3668 138.478 40.8952C138.949 40.4237 139.323 39.8736 139.598 39.2448C139.873 38.5965 140.011 37.9088 140.011 37.1818C140.011 36.4745 139.873 35.8065 139.598 35.1778C139.323 34.5294 138.949 33.9694 138.478 33.4979C138.006 33.0263 137.456 32.653 136.827 32.378C136.198 32.1029 135.52 31.9654 134.792 31.9654C134.065 31.9654 133.377 32.1029 132.729 32.378C132.1 32.653 131.55 33.0263 131.078 33.4979C130.606 33.9694 130.233 34.5294 129.958 35.1778C129.682 35.8065 129.545 36.4745 129.545 37.1818C129.545 37.9088 129.682 38.5965 129.958 39.2448C130.233 39.8736 130.606 40.4237 131.078 40.8952C131.55 41.3668 132.1 41.7401 132.729 42.0152C133.377 42.2902 134.065 42.4278 134.792 42.4278Z" fill="#252930"/>
    <path d="M32.7415 49.0589H34.8051V68.068H32.7415V55.9257L27.3759 64.8556V68.068H25.3122V49.0589H27.3759V61.2895L32.7415 52.3302V49.0589Z" fill="#252930"/>
    <path d="M55.226 56.5446C56.189 57.4484 56.6706 58.6175 56.6706 60.0517V63.6473H54.6069V60.0517C54.6069 59.5998 54.5283 59.2069 54.371 58.8729C54.2335 58.5389 54.0369 58.2638 53.7814 58.0477C53.5456 57.8119 53.2704 57.6449 52.956 57.5467C52.6415 57.4288 52.327 57.3698 52.0126 57.3698H51.6588L50.4206 59.4623V63.6473H48.3569V49.0589H50.4206V56.3383L54.3121 49.0589H56.5526L52.8086 55.3952C53.7519 55.5524 54.5578 55.9356 55.226 56.5446Z" fill="#252930"/>
    <path d="M64.6984 49.0883H66.6736V53.3028C66.6736 54.2655 66.6048 55.1988 66.4672 56.1026C66.3493 57.0064 66.1233 57.8905 65.7892 58.755C65.4747 59.5998 65.0325 60.4349 64.4625 61.2601C63.9122 62.0656 63.2047 62.8614 62.3399 63.6473H59.6866C60.1583 63.1757 60.6497 62.6649 61.1607 62.1147C61.6913 61.5646 62.1925 60.9457 62.6642 60.258C61.8977 59.924 61.2688 59.482 60.7774 58.9318C60.2861 58.362 59.893 57.7431 59.5982 57.0751C59.3034 56.4071 59.097 55.7096 58.9791 54.9826C58.8611 54.236 58.8022 53.5091 58.8022 52.8017V49.0883H60.7479V52.8017C60.8069 54.0985 61.0329 55.2479 61.426 56.2499C61.8191 57.2323 62.5463 58.0084 63.6076 58.5782C63.9417 57.8708 64.207 57.0948 64.4036 56.2499C64.6001 55.3854 64.6984 54.4227 64.6984 53.3617V49.0883Z" fill="#252930"/>
    <path d="M89.0822 49.0589H96.364V50.8566H93.7402V63.6473H91.6765V50.8566H89.0822V49.0589Z" fill="#252930"/>
    <path d="M100.2 54.2753H101.379C101.674 54.2753 101.949 54.295 102.204 54.3343C102.48 54.3539 102.755 54.3834 103.03 54.4227C103.285 54.2459 103.57 53.9904 103.885 53.6564C104.219 53.3224 104.386 52.9295 104.386 52.4776C104.386 52.1436 104.337 51.9078 104.239 51.7702C104.16 51.6327 104.081 51.5246 104.003 51.4461C103.688 51.2299 103.217 51.1219 102.588 51.1219H100.2V54.2753ZM102.087 61.5843C104.17 61.5843 105.212 60.7591 105.212 59.1087C105.212 58.2049 104.897 57.527 104.268 57.0751C103.934 56.8197 103.521 56.633 103.03 56.5152C102.558 56.3973 102.008 56.3383 101.379 56.3383H100.2V61.5843H102.087ZM105.477 55.3952C106.676 56.2597 107.275 57.4975 107.275 59.1087C107.275 60.5626 106.774 61.7021 105.772 62.5274C104.848 63.274 103.62 63.6473 102.087 63.6473H98.1361V49.0589H102.588C103.669 49.0589 104.553 49.3143 105.241 49.8251C105.516 50.0412 105.781 50.3556 106.037 50.7682C106.312 51.1808 106.45 51.7506 106.45 52.4776C106.45 53.4599 106.047 54.3736 105.241 55.2184C105.28 55.2577 105.32 55.2872 105.359 55.3068C105.398 55.3265 105.438 55.3559 105.477 55.3952Z" fill="#252930"/>
    <path d="M109.335 49.0589V63.6473H111.399V57.0162H115.585V63.6473H117.649V53.8922C117.649 52.9884 117.492 52.2123 117.177 51.5639C116.843 50.9156 116.381 50.3949 115.792 50.0019C114.868 49.3732 113.581 49.0589 111.93 49.0589H109.335ZM111.399 51.1219H111.93C112.736 51.1219 113.384 51.2005 113.875 51.3576C114.347 51.5148 114.711 51.7309 114.966 52.006C115.222 52.2614 115.389 52.5562 115.467 52.8902C115.546 53.2045 115.585 53.5385 115.585 53.8922V54.9532H111.399V51.1219Z" fill="#252930"/>
    <path d="M76.4053 50.1198C76.7394 50.3949 77.0244 50.7093 77.2603 51.0629L75.6978 52.4481C75.1868 51.5639 74.4694 51.1219 73.5457 51.1219C72.4254 51.1219 71.5901 51.4559 71.0398 52.1239C70.4895 52.7919 70.2143 53.6564 70.2143 54.7174C70.2143 55.4247 70.3519 56.1811 70.627 56.9867C70.9219 57.7923 71.3641 58.5389 71.9537 59.2265C72.5433 59.8946 73.2902 60.4545 74.1943 60.9064C75.0983 61.3583 76.1695 61.5843 77.4077 61.5843V63.6473C76.7002 63.6473 76.0122 63.5785 75.344 63.441C74.6758 63.3034 74.037 63.0971 73.4277 62.8221C72.8774 62.5666 72.3566 62.2621 71.8653 61.9085C71.3739 61.5548 70.9219 61.152 70.5091 60.7001C69.7426 59.8356 69.153 58.8827 68.7403 57.8414C68.3472 56.7804 68.1507 55.7391 68.1507 54.7174C68.1507 53.1063 68.5929 51.7997 69.4773 50.7977C70.46 49.6385 71.8161 49.0589 73.5457 49.0589C74.6463 49.0589 75.5995 49.4125 76.4053 50.1198Z" fill="#252930"/>
    <path d="M86.0672 50.1196C86.4013 50.3946 86.6863 50.709 86.9221 51.0627L85.3596 52.4478C84.8486 51.5637 84.1313 51.1216 83.2075 51.1216C82.0872 51.1216 81.252 51.4556 80.7016 52.1236C80.1513 52.7917 79.8762 53.6562 79.8762 54.7171C79.8762 55.4244 80.0137 56.1809 80.2889 56.9864C80.5837 57.792 81.0259 58.5386 81.6155 59.2263C82.2052 59.8943 82.952 60.4543 83.8561 60.9061C84.7602 61.358 85.8314 61.584 87.0696 61.584V63.647C86.362 63.647 85.6741 63.5782 85.0059 63.4407C84.3376 63.3032 83.6989 63.0969 83.0896 62.8218C82.5393 62.5664 82.0185 62.2618 81.5271 61.9082C81.0358 61.5545 80.5837 61.1517 80.171 60.6999C79.4045 59.8354 78.8149 58.8824 78.4021 57.8411C78.009 56.7801 77.8125 55.7388 77.8125 54.7171C77.8125 53.106 78.2547 51.7994 79.1391 50.7974C80.1218 49.6382 81.478 49.0586 83.2075 49.0586C84.3081 49.0586 85.2614 49.4123 86.0672 50.1196Z" fill="#252930"/>
    <path d="M44.9617 50.1196C45.2958 50.3946 45.5808 50.709 45.8167 51.0627L44.2542 52.4478C43.7432 51.5637 43.0258 51.1216 42.1021 51.1216C40.9818 51.1216 40.1465 51.4556 39.5962 52.1236C39.0459 52.7917 38.7707 53.6562 38.7707 54.7171C38.7707 55.4244 38.9083 56.1809 39.1834 56.9864C39.4782 57.792 39.9205 58.5386 40.5101 59.2263C41.0997 59.8943 41.8465 60.4543 42.7506 60.9061C43.6547 61.358 44.7259 61.584 45.9641 61.584V63.647C45.2565 63.647 44.5686 63.5782 43.9004 63.4407C43.2322 63.3032 42.5934 63.0969 41.9841 62.8218C41.4338 62.5664 40.913 62.2618 40.4216 61.9082C39.9303 61.5545 39.4782 61.1517 39.0655 60.6999C38.299 59.8354 37.7094 58.8824 37.2966 57.8411C36.9036 56.7801 36.707 55.7388 36.707 54.7171C36.707 53.106 37.1492 51.7994 38.0337 50.7974C39.0164 49.6382 40.3725 49.0586 42.1021 49.0586C43.2027 49.0586 44.1559 49.4123 44.9617 50.1196Z" fill="#252930"/>
    <path d="M80.7755 8.92612C80.7857 12.9763 80.7857 20.8111 80.7755 24.862H83.0274C84.9313 24.8534 86.3925 24.8511 88.2965 24.8323V24.6502V22.971H86.3312H82.9854V22.5166C82.9985 19.9577 82.9922 17.3989 82.9933 14.8406C82.9933 14.7055 82.9837 14.5704 82.9933 14.4107H86.473V12.3223H85.7232H83.0189V7.04316C83.1001 7.02968 83.1819 7.02051 83.2641 7.01569C84.4783 7.01569 87.0828 7.00195 88.2965 7.02542V5.13616H87.9467C85.084 5.14933 83.6376 5.1436 80.7755 5.14532V5.17222V5.38398C80.7755 5.38398 80.7721 7.67501 80.7755 8.92669V8.92612Z" fill="#252930"/>
    <path d="M43.4197 21.3788C43.4123 21.8424 43.4197 22.761 43.4197 22.761V24.8494H45.7097C45.7097 24.8494 45.7102 22.7261 45.7097 21.5465V5.25177L49.5482 11.4329H50.3725L54.2683 5.22487V20.1798C54.2692 20.4418 54.3001 20.7028 54.3603 20.9576C54.4806 23.1736 56.313 24.8374 58.5456 24.8374C60.2333 24.8374 61.6555 24.1216 63.1075 22.9426C63.0333 22.2134 62.7804 21.6294 62.3544 21.1304C61.0531 22.2134 59.7638 22.7742 58.5456 22.7742C57.5414 22.7742 56.401 22.0874 56.401 20.7264C56.401 19.4392 57.4188 18.5321 59.0276 18.5321C60.7964 18.5321 61.804 18.9041 63.8811 21.562C64.0879 21.8266 64.2959 22.0997 64.5077 22.3779L64.514 22.3861C66.3754 24.8311 68.692 27.8026 72.4096 27.8026C72.7309 27.7912 73.0628 27.7637 73.4053 27.7202C77.1241 27.2429 80.1236 23.8072 79.7103 19.5932C79.3992 16.4202 77.0463 14.0542 74.3084 13.5133L78.2253 7.67558L77.3538 5.1871C73.66 5.17451 75.0436 5.17966 71.3498 5.16993H70.9581V7.08093H72.7871L76.0228 7.11642L75.7617 7.48385L71.2277 14.3804L72.442 15.5805C74.1625 14.8748 76.6421 16.6886 77.3653 18.5481C77.933 20.1025 77.7059 21.657 76.9713 23.1485C76.0063 25.1024 74.3192 25.9603 72.4125 25.9283C69.7047 25.9283 67.8927 23.4312 66.1409 21.1304C65.9218 20.8443 65.7061 20.5581 65.4927 20.2857C65.4143 20.1857 65.3366 20.0882 65.2594 19.9932L66.2812 16.6892L66.8766 14.757L69.6538 5.18023H67.6343L67.2167 6.9659L65.2128 14.1635L61.0165 5.16993H58.9949L64.1104 16.6606H64.1144L63.5995 18.2522C61.9868 16.8614 60.5756 16.5644 59.0418 16.5644C58.1074 16.5644 57.2604 16.7704 56.5526 17.1367C56.5565 13.1802 56.5571 8.35379 56.5554 3.63438C56.8087 3.57768 57.0674 3.54852 57.3269 3.54738H57.8423H58.8113V1.48242H57.3269C55.5359 1.48242 53.8437 2.03815 52.6652 3.91939L49.9671 8.3578L47.3076 3.93885C46.2518 2.16464 44.4336 1.48242 42.6335 1.48242H41.1689V3.54624H42.6335C42.8994 3.54766 43.1644 3.57817 43.4237 3.63724L43.4243 3.63666V3.73393C43.4243 10.1399 43.4243 17.4064 43.4197 21.3788Z" fill="#252930"/>
    <path fill-rule="evenodd" clip-rule="evenodd" d="M96.7186 5.13794H98.9131V24.8269H96.7186V12.3659L91.8674 22.2109V24.8269H89.6729V5.138H91.8674V17.246L96.7186 7.40097V5.13794Z" fill="#252930"/>
    <path fill-rule="evenodd" clip-rule="evenodd" d="M98.767 1.72078C96.9514 3.05629 95.0816 3.64919 91.9831 3.64919H89.6914V1.51303H91.9831C94.7317 1.51303 96.1292 1.00925 97.5013 0L98.767 1.72078Z" fill="#252930"/>
</svg>
