<svg width="112" height="32" viewBox="0 0 112 32" fill="none" xmlns="http://www.w3.org/2000/svg">
    <path d="M6.20136 15.2637H7.37814C7.84293 15.2638 8.29658 15.1217 8.67833 14.8566C9.06004 14.5914 9.3515 14.2159 9.51363 13.7803L12.2191 6.51443V2.51984C12.2203 2.19006 12.1564 1.86329 12.0313 1.55818C11.9062 1.25307 11.7221 0.975606 11.4897 0.741614C11.2574 0.507625 10.9812 0.321699 10.6769 0.194454C10.3727 0.0672075 10.0464 0.00113242 9.71658 0H0V0.0798909C0.538118 0.21998 1.01452 0.534709 1.35449 0.974723C1.69447 1.41474 1.87879 1.95515 1.87854 2.5112V29.478C1.87868 30.0338 1.69428 30.5739 1.35428 31.0135C1.01429 31.4532 0.537942 31.7675 0 31.9071V32H9.71658C10.3826 32 11.0213 31.7354 11.4923 31.2645C11.9632 30.7935 12.2278 30.1548 12.2278 29.4888V25.4942L9.51147 18.211C9.35167 17.7742 9.06114 17.3972 8.67939 17.1314C8.29768 16.8655 7.8433 16.7238 7.37814 16.7255H6.20136C6.00775 16.7244 5.82246 16.6468 5.68579 16.5097C5.54908 16.3726 5.47208 16.1871 5.47153 15.9935C5.47153 15.8 5.54842 15.6143 5.68527 15.4775C5.82215 15.3406 6.00778 15.2637 6.20136 15.2637Z" fill="white"/>
    <path d="M16.5137 3.32363e-07C15.9665 -0.000272123 15.4324 0.166971 14.9831 0.479249C14.5337 0.791529 14.1908 1.23388 14.0003 1.74683L12.2276 6.49718L9.52208 13.7717C9.36084 14.2102 9.06866 14.5886 8.6851 14.8555C8.30156 15.1224 7.84519 15.2649 7.37793 15.2637H18.4765C18.9703 15.2636 19.4523 15.1125 19.8579 14.8308C20.2635 14.5491 20.5733 14.1502 20.7458 13.6875L25.2997 1.48556C25.4121 1.17203 25.5932 0.887586 25.8297 0.652985C26.0662 0.418385 26.3521 0.239557 26.6665 0.129555V3.32363e-07H16.5137Z" fill="url(#paint0_linear_4_2117)"/>
    <path d="M25.2997 30.5059L20.8084 18.4703C20.6158 17.9589 20.2723 17.5182 19.8234 17.2067C19.3745 16.8951 18.8415 16.7273 18.2951 16.7256H7.37793C7.842 16.7253 8.29493 16.8676 8.67537 17.1333C9.05585 17.3991 9.34538 17.7753 9.5048 18.2112L12.2211 25.4943L14.0565 30.413C14.2295 30.8754 14.5395 31.274 14.9449 31.5556C15.3504 31.8373 15.8322 31.9886 16.3258 31.9893H26.66V31.8576C26.3484 31.7451 26.0652 31.5658 25.8302 31.3323C25.5952 31.0988 25.4141 30.8168 25.2997 30.5059Z" fill="url(#paint1_linear_4_2117)"/>
    <path d="M36.9362 5.37012V10.0837H35.8567V6.25974H33.7212V10.0837H32.6416V5.37012H36.9362Z" fill="white"/>
    <path d="M42.3776 7.08023C42.3776 8.13178 41.5894 8.78388 40.3305 8.78388H39.3802V10.0794H38.29V5.37012H40.3305C41.5894 5.37012 42.3776 6.02435 42.3776 7.08023ZM41.2719 7.08023C41.2719 6.56201 40.9373 6.25974 40.2701 6.25974H39.3802V7.89643H40.2701C40.9373 7.89643 41.2785 7.60061 41.2785 7.08023H41.2719Z" fill="white"/>
    <path d="M46.9747 9.20926V10.0837H43.3252V5.37012H46.8925V6.24678H44.4092V7.27026H46.5988V8.11882H44.4092V9.19844L46.9747 9.20926Z" fill="white"/>
    <path d="M51.7439 8.76444C51.7439 9.65406 50.7747 10.1658 49.643 10.1658C48.9847 10.1672 48.3374 9.99753 47.7646 9.67351L48.0993 8.89184C48.5281 9.14361 49.0163 9.2763 49.5135 9.2762C50.1333 9.2762 50.6387 9.04731 50.6387 8.60897C50.6387 8.25272 50.3167 8.07781 49.8244 8.07781H48.6738V7.25515H49.7423C50.1872 7.25515 50.4442 7.06082 50.4442 6.75205C50.4442 6.36769 50.0254 6.16471 49.4942 6.16471C49.0507 6.169 48.6157 6.28486 48.2288 6.50155L47.8983 5.65732C48.3989 5.40341 48.9524 5.27169 49.5135 5.27296C50.606 5.27296 51.5474 5.77173 51.5474 6.62682C51.5478 6.84303 51.4832 7.05433 51.3619 7.23337C51.2406 7.41237 51.0681 7.55083 50.8675 7.63085C51.1169 7.69888 51.3375 7.8463 51.4955 8.05087C51.6536 8.2554 51.7408 8.5059 51.7439 8.76444Z" fill="white"/>
    <path d="M52.8193 5.37012H53.8988V8.44055L56.1489 5.37012H57.1724V10.0837H56.0929V7.01979L53.8494 10.0837H52.8193V5.37012Z" fill="white"/>
    <path d="M63.4255 9.19621V11.0553H62.415V10.0836H59.0875V11.0553H58.0791V9.18972H58.267C58.8803 9.16814 59.0356 8.15758 59.081 6.83829L59.1352 5.36353H62.7583V9.18972L63.4255 9.19621ZM59.5798 9.19621H61.6873V6.25964H60.0636L60.0419 6.94628C60.0117 7.95031 59.9038 8.81186 59.5798 9.19621Z" fill="white"/>
    <path d="M68.0334 9.20926V10.0837H64.3818V5.37012H67.9447V6.24678H65.4617V7.27026H67.651V8.11882H65.4617V9.19844L68.0334 9.20926Z" fill="white"/>
    <path d="M73.4791 5.37012V10.0837H72.389V8.15122H70.2468V10.0837H69.1562V5.37012H70.2468V7.22924H72.389V5.37012H73.4791Z" fill="white"/>
    <path d="M78.4738 6.25974H76.9621V10.0837H75.8826V6.25974H74.3818V5.37012H78.4694L78.4738 6.25974Z" fill="white"/>
    <path d="M79 7.72795C79 6.3072 80.0905 5.29018 81.5586 5.29018C81.9245 5.27414 82.289 5.34072 82.6254 5.48502C82.9621 5.62933 83.2617 5.8476 83.5022 6.12366L82.8024 6.77144C82.6587 6.59639 82.4777 6.45587 82.2726 6.36018C82.0674 6.26449 81.8434 6.21615 81.617 6.21866C81.2161 6.21866 80.8316 6.37791 80.5482 6.66136C80.2647 6.94481 80.1056 7.32927 80.1056 7.73012C80.1056 8.131 80.2647 8.51543 80.5482 8.79891C80.8316 9.08236 81.2161 9.24161 81.617 9.24161C81.8438 9.24333 82.0681 9.19396 82.2736 9.09717C82.4787 9.00035 82.6594 8.85856 82.8024 8.68234L83.5022 9.33012C83.2631 9.60862 82.9642 9.82912 82.6275 9.97501C82.2908 10.1209 81.9252 10.1883 81.5586 10.1722C80.0905 10.1658 79 9.14874 79 7.72795Z" fill="white"/>
    <path d="M86.2465 8.18579H85.491V10.0837H84.4111V5.37012H85.491V7.27672H86.2726L87.5119 5.37012H88.6629L87.1213 7.64596L88.7103 10.0837H87.471L86.2465 8.18579Z" fill="white"/>
    <path d="M89.5996 5.37012H90.6795V8.44055L92.9292 5.37012H93.9637V10.0837H92.8838V7.01979L90.6296 10.0837H89.5996V5.37012Z" fill="white"/>
    <path d="M95.3106 5.37009H96.3902V8.44052L98.6402 5.37009H99.6638V10.0837H98.5842V7.01973L96.3386 10.0837H95.3086L95.3106 5.37009ZM96.1744 4.03784H96.9213C96.9213 4.35957 97.1093 4.52799 97.4807 4.52799C97.8521 4.52799 98.0314 4.35957 98.04 4.03784H98.787C98.787 4.68562 98.3551 5.06778 97.4807 5.06778C96.6063 5.06778 96.1875 4.69641 96.1809 4.03784H96.1744Z" fill="white"/>
    <path d="M35.7577 17.8655V18.3773H34.7538V17.8569C33.1579 17.7641 32.2812 17.0299 32.2812 15.797C32.2812 14.5641 33.1579 13.8299 34.7538 13.7371V13.2512H35.7577V13.7306C37.3467 13.8234 38.2215 14.5641 38.2215 15.797C38.2215 17.0299 37.3533 17.7835 35.7577 17.8655ZM34.7538 17.0018V14.5921C33.797 14.6785 33.3393 15.0628 33.3393 15.797C33.3393 16.5311 33.8446 16.9155 34.7538 17.0083V17.0018ZM37.1718 15.784C37.1718 15.0564 36.6926 14.6655 35.7577 14.5856V17.0018C36.7077 16.9219 37.1763 16.5246 37.1763 15.7905L37.1718 15.784Z" fill="white"/>
    <path d="M39.0303 15.8057C39.0303 14.4065 40.1101 13.3679 41.6085 13.3679C43.1071 13.3679 44.1887 14.3979 44.1887 15.8057C44.1887 17.2135 43.0896 18.2435 41.6085 18.2435C40.1273 18.2435 39.0303 17.2114 39.0303 15.8057ZM43.0834 15.8057C43.0762 15.5157 42.9835 15.2343 42.8172 14.9966C42.6509 14.759 42.4179 14.5757 42.1479 14.4696C41.8778 14.3636 41.5827 14.3396 41.2989 14.4006C41.0155 14.4616 40.7561 14.6049 40.5533 14.8125C40.351 15.0201 40.2139 15.2829 40.1599 15.5679C40.106 15.8529 40.1373 16.1476 40.25 16.4149C40.3627 16.6823 40.5516 16.9105 40.7932 17.0709C41.0347 17.2314 41.3185 17.3171 41.6085 17.3171C41.8067 17.3228 42.0043 17.2873 42.1881 17.2128C42.3722 17.1384 42.5385 17.0267 42.6773 16.8846C42.8158 16.7426 42.9233 16.5734 42.9934 16.3877C43.0632 16.202 43.0937 16.0038 43.0834 15.8057Z" fill="white"/>
    <path d="M49.5544 13.4543V18.168H48.4619V16.2376H46.3197V18.1701H45.2295V13.4543H46.3197V15.3113H48.4619V13.4543H49.5544Z" fill="white"/>
    <path d="M55.8063 17.2784V19.144H54.7979V18.168H51.4704V19.144H50.46V17.2784H50.6479C51.2608 17.2589 51.4165 16.2484 51.4639 14.9291L51.5178 13.4543H55.1412V17.2784H55.8063ZM51.9607 17.2784H54.0703V14.3418H52.453L52.4335 15.0284C52.3926 16.0325 52.2909 16.8854 51.9607 17.2784Z" fill="white"/>
    <path d="M60.9472 16.2679H60.1938V18.168H59.1143V13.4543H60.1938V15.3588H60.9733L62.2126 13.4543H63.3657L61.822 15.7302L63.411 18.168H62.1738L60.9472 16.2679Z" fill="white"/>
    <path d="M68.8041 13.4543L66.7959 17.1855C66.4052 17.911 65.8459 18.2759 65.2134 18.2759C64.9495 18.2729 64.6891 18.2179 64.4468 18.114L64.7079 17.2848C64.8605 17.3374 65.0199 17.3673 65.1807 17.3734C65.3171 17.3727 65.4504 17.3347 65.5665 17.2635C65.6827 17.1923 65.7772 17.0907 65.8393 16.9696L65.8806 16.9156L64.0215 13.4608H65.1872L66.4396 15.9914L67.7352 13.4608L68.8041 13.4543Z" fill="white"/>
    <path d="M73.5787 13.4543V18.168H72.4992V14.3418H70.884L70.8497 15.3264C70.7892 17.1769 70.5277 18.2414 69.4221 18.2414C69.2407 18.2378 69.0603 18.2131 68.8848 18.168L68.9514 17.246C69.0146 17.2641 69.0803 17.2728 69.1459 17.2719C69.6987 17.2719 69.8389 16.5723 69.8866 15.3653L69.9533 13.4543H73.5787Z" fill="white"/>
    <path d="M79.0027 16.5248C79.0027 17.6044 78.275 18.168 77.0595 18.168H74.9307V13.4543H76.0102V15.0025H77.2106C78.3571 15.0025 79.0027 15.5078 79.0027 16.5248ZM77.906 16.5442C77.906 16.026 77.569 15.8101 77.0035 15.8101H76.0188V17.3604H77.0035C77.5539 17.3604 77.906 17.0776 77.906 16.5442Z" fill="white"/>
    <path d="M83.1847 14.3418H81.6733V18.168H80.5934V14.3418H79.082V13.4543H83.1696L83.1847 14.3418Z" fill="white"/>
    <path d="M88.6106 13.4543L86.6048 17.1855C86.2138 17.911 85.6545 18.2759 85.0219 18.2759C84.7574 18.2727 84.4963 18.2177 84.2534 18.114L84.5165 17.2848C84.6684 17.3373 84.8271 17.3671 84.9872 17.3734C85.124 17.3729 85.2576 17.335 85.3741 17.2638C85.4906 17.1926 85.5854 17.0909 85.6479 16.9696L85.6892 16.9156L83.8301 13.4608H84.9938L86.2485 15.9914L87.5438 13.4608L88.6106 13.4543Z" fill="white"/>
    <path d="M93.569 15.158C93.569 16.2074 92.7829 16.8616 91.5219 16.8616H90.574V18.1572H89.4814V13.4543H91.5219C92.7829 13.4543 93.569 14.1065 93.569 15.158ZM92.4654 15.158C92.4654 14.6398 92.1287 14.3353 91.4615 14.3353H90.574V15.972H91.4615C92.1287 15.9785 92.4654 15.6762 92.4654 15.158Z" fill="white"/>
    <path d="M98.8413 13.4543V18.168H97.7618V16.2376H95.6199V18.1701H94.5273V13.4543H95.6199V15.3113H97.7618V13.4543H98.8413Z" fill="white"/>
    <path d="M104.265 16.5248C104.265 17.6044 103.538 18.168 102.322 18.168H100.195V13.4543H101.275V15.0025H102.473C103.62 15.0025 104.265 15.5078 104.265 16.5248ZM103.169 16.5442C103.169 16.026 102.832 15.8101 102.266 15.8101H101.283V17.3604H102.266C102.816 17.3604 103.169 17.0776 103.169 16.5442ZM104.866 13.4543H105.945V18.168H104.866V13.4543Z" fill="white"/>
    <path d="M108.215 13.4543L109.193 14.8816L110.169 13.4543H111.447L109.879 15.7107L111.576 18.168H110.281L109.184 16.6047L108.105 18.168H106.846L108.53 15.7561L106.954 13.4543H108.215Z" fill="white"/>
    <path d="M32.6416 21.5364H33.7212V24.6068L35.9711 21.5364H36.9946V26.25H35.9151V23.186L33.6651 26.25H32.6416V21.5364Z" fill="white"/>
    <path d="M42.6735 21.5364V26.25H41.5829V24.3067H39.4408V26.25H38.3506V21.5364H39.4408V23.3955H41.5829V21.5364H42.6735Z" fill="white"/>
    <path d="M44.0319 21.5364H45.1114V24.6068L47.3612 21.5364H48.3847V26.25H47.3052V23.186L45.0554 26.25H44.0254L44.0319 21.5364Z" fill="white"/>
    <path d="M54.6849 25.3625V27.2497H53.683V26.2522H49.7422V21.5364H50.822V25.3625H52.9381V21.5364H54.0176V25.3625H54.6849Z" fill="white"/>
    <path d="M55.6393 21.5364H56.7189V24.6068L58.9665 21.5364H59.99V26.25H58.9105V23.186L56.6629 26.25H55.6328L55.6393 21.5364Z" fill="white"/>
    <path d="M64.5986 25.2416H62.4111L61.9943 26.25H60.876L62.9769 21.5364H64.0565L66.1639 26.25H65.0195L64.5986 25.2416ZM64.253 24.4125L63.5188 22.6074L62.7718 24.4125H64.253Z" fill="white"/>
    <path d="M70.1085 22.426H68.5971V26.25H67.5172V22.426H66.0059V21.5364H70.0934L70.1085 22.426Z" fill="white"/>
    <path d="M71.0066 21.5364H72.0865V24.6068L74.3342 21.5364H75.3577V26.25H74.2782V23.186L72.0301 26.25H70.998L71.0066 21.5364Z" fill="white"/>
    <path d="M80.8742 24.9242C80.8742 25.7447 80.2266 26.25 79.0433 26.25H76.7197V21.5364H78.9138C80.0064 21.5364 80.652 21.9682 80.652 22.7563C80.6561 22.9758 80.5949 23.1916 80.476 23.3762C80.3572 23.5608 80.1861 23.7058 79.9847 23.7928C80.2424 23.8465 80.4729 23.9894 80.6355 24.1964C80.7983 24.4034 80.8828 24.6611 80.8742 24.9242ZM77.8037 23.4905H78.8207C79.2914 23.4905 79.5398 23.294 79.5398 22.9183C79.5398 22.5426 79.2914 22.3439 78.8207 22.3439H77.8037V23.4905ZM79.7686 24.8357C79.7686 24.4384 79.5075 24.2506 79.0021 24.2506H77.8037V25.4425H79.0021C79.5075 25.4425 79.7686 25.2481 79.7686 24.8357Z" fill="white"/>
    <defs>
        <linearGradient id="paint0_linear_4_2117" x1="17.0254" y1="-0.829148" x2="17.0254" y2="15.1838" gradientUnits="userSpaceOnUse">
            <stop offset="0.04" stop-color="#3A61A9"/>
            <stop offset="0.06" stop-color="#3879BA"/>
            <stop offset="0.1" stop-color="#3691CB"/>
            <stop offset="0.14" stop-color="#34A2D7"/>
            <stop offset="0.18" stop-color="#33ACDF"/>
            <stop offset="0.23" stop-color="#33AFE1"/>
            <stop offset="0.37" stop-color="#3599D1"/>
            <stop offset="0.61" stop-color="#387ABB"/>
            <stop offset="0.82" stop-color="#3968AE"/>
            <stop offset="0.96" stop-color="#3A61A9"/>
        </linearGradient>
        <linearGradient id="paint1_linear_4_2117" x1="17.0254" y1="32.6047" x2="17.0254" y2="16.7429" gradientUnits="userSpaceOnUse">
            <stop offset="0.09" stop-color="#E94B4C"/>
            <stop offset="0.14" stop-color="#DA4243"/>
            <stop offset="0.21" stop-color="#CA3839"/>
            <stop offset="0.29" stop-color="#C13334"/>
            <stop offset="0.4" stop-color="#BE3132"/>
            <stop offset="0.63" stop-color="#D5373B"/>
            <stop offset="0.84" stop-color="#E73C42"/>
            <stop offset="0.88" stop-color="#E23B41"/>
            <stop offset="0.92" stop-color="#D5383D"/>
            <stop offset="0.97" stop-color="#BF3436"/>
            <stop offset="1" stop-color="#A72F2F"/>
        </linearGradient>
    </defs>
</svg>
