<svg width="22" height="30" viewBox="0 0 22 30" fill="none" xmlns="http://www.w3.org/2000/svg">
    <path d="M20.4544 10.9083C20.0928 10.9083 19.746 11.0519 19.4904 11.3078C19.2344 11.5634 19.0909 11.9102 19.0909 12.2718V13.6356C19.0909 16.5586 17.5314 19.2596 15 20.721C12.4685 22.1825 9.34965 22.1825 6.81821 20.721C4.28678 19.2595 2.72733 16.5584 2.72733 13.6356V12.2718C2.72733 11.7847 2.46732 11.3345 2.04544 11.0909C1.62357 10.8473 1.10378 10.8473 0.681891 11.0909C0.260005 11.3345 0 11.7846 0 12.2718V13.6356C0.00251116 16.2908 0.973396 18.8542 2.73055 20.8449C4.48787 22.8358 6.9109 24.1171 9.54537 24.4491V27.2718H8.18159C7.69443 27.2718 7.24425 27.5319 7.00067 27.9537C6.75708 28.3756 6.75708 28.8954 7.00067 29.3173C7.24425 29.7392 7.69442 29.9992 8.18159 29.9992H13.6363C14.1234 29.9992 14.5736 29.7392 14.8172 29.3173C15.0608 28.8954 15.0608 28.3756 14.8172 27.9537C14.5736 27.5319 14.1234 27.2718 13.6363 27.2718H12.2725V24.4491C14.9071 24.1172 17.3301 22.8358 19.0873 20.8449C20.8444 18.8543 21.8153 16.2908 21.8178 13.6356V12.2718C21.8178 11.9102 21.674 11.5634 21.4183 11.3078C21.1627 11.0519 20.8159 10.9083 20.4541 10.9083H20.4544Z" fill="#CBA69B"/>
    <path d="M10.9095 19.0909C12.3562 19.0909 13.7434 18.5163 14.7664 17.4933C15.7893 16.4704 16.3639 15.0831 16.3639 13.6364V5.45466C16.3639 3.50577 15.3243 1.70531 13.6368 0.730748C11.9491 -0.243583 9.8699 -0.243583 8.18218 0.730748C6.49469 1.70531 5.45508 3.50577 5.45508 5.45466V13.6364C5.45508 15.0831 6.02967 16.4704 7.05263 17.4933C8.07558 18.5163 9.46286 19.0909 10.9095 19.0909ZM8.18218 5.45478C8.18218 4.48045 8.70198 3.58011 9.54596 3.09294C10.3897 2.60555 11.4293 2.60555 12.2731 3.09294C13.117 3.5801 13.6368 4.48045 13.6368 5.45478V13.6365C13.6368 14.6109 13.117 15.5112 12.2731 15.9984C11.4293 16.4855 10.3897 16.4855 9.54596 15.9984C8.70201 15.5112 8.18218 14.6109 8.18218 13.6365V5.45478Z" fill="#CBA69B"/>
</svg>
