<svg width="30" height="30" viewBox="0 0 30 30" fill="none" xmlns="http://www.w3.org/2000/svg">
    <path fill-rule="evenodd" clip-rule="evenodd" d="M15 27C21.6274 27 27 21.6274 27 15C27 8.37258 21.6274 3 15 3C8.37258 3 3 8.37258 3 15C3 21.6274 8.37258 27 15 27ZM15 30C23.2843 30 30 23.2843 30 15C30 6.71573 23.2843 0 15 0C6.71573 0 0 6.71573 0 15C0 23.2843 6.71573 30 15 30Z" fill="#F4EDEA"/>
    <path d="M13.2 17.3998V16.7998C13.2 15.8931 13.36 15.2131 13.68 14.7598C14 14.2931 14.54 13.8731 15.3 13.4998C15.7133 13.2865 16 13.0798 16.16 12.8798C16.32 12.6798 16.4 12.3865 16.4 11.9998C16.4 11.6398 16.2533 11.3331 15.96 11.0798C15.68 10.8265 15.2933 10.6998 14.8 10.6998C14.3067 10.6998 13.9133 10.8331 13.62 11.0998C13.34 11.3531 13.2 11.6865 13.2 12.0998H10C10 10.8731 10.4467 9.85314 11.34 9.03981C12.2467 8.21314 13.4333 7.7998 14.9 7.7998C16.34 7.7998 17.5 8.1798 18.38 8.9398C19.26 9.68647 19.7 10.6065 19.7 11.6998C19.7 13.2198 19 14.3198 17.6 14.9998C17.08 15.2531 16.7133 15.5065 16.5 15.7598C16.3 16.0131 16.2 16.3598 16.2 16.7998V17.3998H13.2ZM13.1 21.9998V18.6998H16.3V21.9998H13.1Z" fill="#F4EDEA"/>
</svg>
