<svg width="26" height="26" viewBox="0 0 26 26" fill="none" xmlns="http://www.w3.org/2000/svg">
    <path fill-rule="evenodd" clip-rule="evenodd" d="M10.4002 20.8001C12.8036 20.8001 15.0167 19.9848 16.7774 18.6158L23.7808 25.6193C24.2885 26.1269 25.1116 26.1269 25.6194 25.6193C26.1269 25.1116 26.1269 24.2885 25.6194 23.7807L18.616 16.7772C19.9849 15.0163 20.8002 12.8031 20.8002 10.4C20.8002 4.65619 16.1438 0 10.3998 0C4.65579 0 0 4.65619 0 10.4C0 16.1437 4.65612 20.8005 10.3998 20.8005L10.4002 20.8001ZM10.4002 18.1999C14.7081 18.1999 18.2003 14.7076 18.2003 10.3997C18.2003 6.09171 14.7081 2.59943 10.4002 2.59943C6.09229 2.59943 2.60006 6.09171 2.60006 10.3997C2.60006 14.7076 6.09229 18.1999 10.4002 18.1999ZM9.10024 6.49955V9.09971H6.50013C5.78212 9.09971 5.20018 9.68166 5.20018 10.3997C5.20018 11.1177 5.78212 11.6999 6.50013 11.6999H9.10024V14.2998C9.10024 15.0178 9.68219 15.6 10.4002 15.6C11.1182 15.6 11.7004 15.0178 11.7004 14.2998V11.6999H14.3003C15.0183 11.6999 15.6004 11.1177 15.6004 10.3997C15.6004 9.68166 15.0183 9.09971 14.3003 9.09971H11.7004V6.49955C11.7004 5.78154 11.1182 5.19959 10.4002 5.19959C9.68219 5.19959 9.10024 5.78154 9.10024 6.49955Z" fill="#BA634B"/>
</svg>
