<svg xmlns="http://www.w3.org/2000/svg" display="none">

    <symbol id="reverse" viewBox="0 0 11 12">
        <path d="M7 4.5V5H7.00001L7 4.5ZM0.646447 4.14645C0.451184 4.34171 0.451184 4.65829 0.646447 4.85355L3.82843 8.03553C4.02369 8.2308 4.34027 8.2308 4.53553 8.03553C4.7308 7.84027 4.7308 7.52369 4.53553 7.32843L1.70711 4.5L4.53553 1.67157C4.7308 1.47631 4.7308 1.15973 4.53553 0.964466C4.34027 0.769204 4.02369 0.769204 3.82843 0.964466L0.646447 4.14645ZM1 12H7V11H1V12ZM7 12C7.53433 12 8.52343 11.9228 9.39253 11.3724C10.3007 10.7972 11 9.75479 11 8H10C10 9.44521 9.44928 10.1528 8.85747 10.5276C8.22657 10.9272 7.46567 11 7 11V12ZM11 8C11 6.2899 10.4585 5.23404 9.59672 4.63863C8.77423 4.07036 7.76259 3.99999 6.99999 4L7.00001 5C7.73741 4.99999 8.47577 5.07962 9.02828 5.46136C9.54151 5.81596 10 6.5101 10 8H11ZM7 4H1V5H7V4Z"/>
    </symbol>

    <symbol id="search" viewBox="0 0 19 18">
        <path fill-rule="evenodd" clip-rule="evenodd"
              d="M12.1269 6.99992C12.1269 9.83141 9.83153 12.1268 7.00004 12.1268C4.16855 12.1268 1.87317 9.83141 1.87317 6.99992C1.87317 4.16843 4.16855 1.87305 7.00004 1.87305C9.83153 1.87305 12.1269 4.16843 12.1269 6.99992ZM11.1817 11.4779C10.0868 12.5008 8.61654 13.1268 7.00004 13.1268C3.61626 13.1268 0.873169 10.3837 0.873169 6.99992C0.873169 3.61614 3.61626 0.873047 7.00004 0.873047C10.3838 0.873047 13.1269 3.61614 13.1269 6.99992C13.1269 8.40688 12.6527 9.70307 11.8553 10.7374L18.0551 16.9371L17.348 17.6442L11.1817 11.4779Z"/>
    </symbol>

</svg>